<svg width="120" height="40" viewBox="0 0 120 40" fill="none" xmlns="http://www.w3.org/2000/svg">
<g clip-path="url(#clip0_0_1048)">
<path fill-rule="evenodd" clip-rule="evenodd" d="M120 0H0V32H52L60 40L68 32H120V0Z" fill="#FCB72B"/>
<path d="M41.1022 18.27C41.1022 19.2147 40.8465 19.9383 40.3352 20.441C39.8239 20.935 39.1219 21.182 38.2292 21.182C37.7699 21.182 37.3539 21.1213 36.9812 21C36.6085 20.87 36.2879 20.6837 36.0192 20.441C35.7505 20.1897 35.5425 19.8863 35.3952 19.531C35.2479 19.167 35.1742 18.7467 35.1742 18.27V17.412H36.8902V18.27C36.8902 18.6773 37.0029 18.998 37.2282 19.232C37.4535 19.4573 37.7699 19.57 38.1772 19.57C38.5585 19.57 38.8532 19.4573 39.0612 19.232C39.2779 19.0067 39.3862 18.686 39.3862 18.27V13.512H38.4502V11.9H41.8822V13.512H41.1022V18.27ZM46.9478 20.064C46.7745 20.4713 46.5318 20.7617 46.2198 20.935C45.9078 21.0997 45.5438 21.182 45.1278 21.182C44.7378 21.182 44.3695 21.1083 44.0228 20.961C43.6848 20.8137 43.3858 20.597 43.1258 20.311C42.8658 20.025 42.6578 19.6783 42.5018 19.271C42.3545 18.8637 42.2808 18.4 42.2808 17.88V17.672C42.2808 17.1607 42.3545 16.7013 42.5018 16.294C42.6491 15.8867 42.8485 15.54 43.0998 15.254C43.3511 14.968 43.6415 14.7513 43.9708 14.604C44.3088 14.448 44.6685 14.37 45.0498 14.37C45.5091 14.37 45.8775 14.448 46.1548 14.604C46.4408 14.76 46.6661 15.0027 46.8308 15.332H47.0648V14.552H48.7028V19.05C48.7028 19.31 48.8198 19.44 49.0538 19.44H49.3008V21H48.1828C47.8881 21 47.6455 20.9133 47.4548 20.74C47.2728 20.5667 47.1818 20.3413 47.1818 20.064H46.9478ZM45.4918 19.622C45.9685 19.622 46.3498 19.466 46.6358 19.154C46.9218 18.8333 47.0648 18.4 47.0648 17.854V17.698C47.0648 17.152 46.9218 16.723 46.6358 16.411C46.3498 16.0903 45.9685 15.93 45.4918 15.93C45.0151 15.93 44.6338 16.0903 44.3478 16.411C44.0618 16.723 43.9188 17.152 43.9188 17.698V17.854C43.9188 18.4 44.0618 18.8333 44.3478 19.154C44.6338 19.466 45.0151 19.622 45.4918 19.622ZM52.3124 16.918H52.6244L54.3404 14.552H56.1344V14.63L54.0544 17.581V17.815L56.3424 20.922V21H54.4704L52.6244 18.478H52.3124V21H50.6744V11.9H52.3124V16.918ZM61.707 20.064C61.5337 20.4713 61.291 20.7617 60.979 20.935C60.667 21.0997 60.303 21.182 59.887 21.182C59.497 21.182 59.1287 21.1083 58.782 20.961C58.444 20.8137 58.145 20.597 57.885 20.311C57.625 20.025 57.417 19.6783 57.261 19.271C57.1137 18.8637 57.04 18.4 57.04 17.88V17.672C57.04 17.1607 57.1137 16.7013 57.261 16.294C57.4084 15.8867 57.6077 15.54 57.859 15.254C58.1104 14.968 58.4007 14.7513 58.73 14.604C59.068 14.448 59.4277 14.37 59.809 14.37C60.2684 14.37 60.6367 14.448 60.914 14.604C61.2 14.76 61.4254 15.0027 61.59 15.332H61.824V14.552H63.462V19.05C63.462 19.31 63.579 19.44 63.813 19.44H64.06V21H62.942C62.6474 21 62.4047 20.9133 62.214 20.74C62.032 20.5667 61.941 20.3413 61.941 20.064H61.707ZM60.251 19.622C60.7277 19.622 61.109 19.466 61.395 19.154C61.681 18.8333 61.824 18.4 61.824 17.854V17.698C61.824 17.152 61.681 16.723 61.395 16.411C61.109 16.0903 60.7277 15.93 60.251 15.93C59.7744 15.93 59.393 16.0903 59.107 16.411C58.821 16.723 58.678 17.152 58.678 17.698V17.854C58.678 18.4 58.821 18.8333 59.107 19.154C59.393 19.466 59.7744 19.622 60.251 19.622ZM64.6016 14.552H67.3316V15.488H67.5656C67.687 15.1327 67.8906 14.8597 68.1766 14.669C68.4713 14.4697 68.8223 14.37 69.2296 14.37C69.871 14.37 70.3866 14.5737 70.7766 14.981C71.1666 15.3797 71.3616 15.9907 71.3616 16.814V17.1L69.6716 17.256V17.074C69.6716 16.7187 69.5806 16.437 69.3986 16.229C69.2166 16.0123 68.9436 15.904 68.5796 15.904C68.2156 15.904 67.9296 16.0297 67.7216 16.281C67.5136 16.5323 67.4096 16.892 67.4096 17.36V19.44H68.8916V21H64.4456V19.44H65.7716V16.112H64.6016V14.552ZM72.1112 14.552H74.0222V11.9H75.6602V14.552H77.9872V16.112H75.6602V19.05C75.6602 19.31 75.7772 19.44 76.0112 19.44H77.7532V21H75.0232C74.7286 21 74.4859 20.9047 74.2952 20.714C74.1132 20.5233 74.0222 20.2807 74.0222 19.986V16.112H72.1112V14.552ZM83.8458 20.064C83.6725 20.4713 83.4298 20.7617 83.1178 20.935C82.8058 21.0997 82.4418 21.182 82.0258 21.182C81.6358 21.182 81.2675 21.1083 80.9208 20.961C80.5828 20.8137 80.2838 20.597 80.0238 20.311C79.7638 20.025 79.5558 19.6783 79.3998 19.271C79.2525 18.8637 79.1788 18.4 79.1788 17.88V17.672C79.1788 17.1607 79.2525 16.7013 79.3998 16.294C79.5472 15.8867 79.7465 15.54 79.9978 15.254C80.2492 14.968 80.5395 14.7513 80.8688 14.604C81.2068 14.448 81.5665 14.37 81.9478 14.37C82.4072 14.37 82.7755 14.448 83.0528 14.604C83.3388 14.76 83.5642 15.0027 83.7288 15.332H83.9628V14.552H85.6008V19.05C85.6008 19.31 85.7178 19.44 85.9518 19.44H86.1988V21H85.0808C84.7862 21 84.5435 20.9133 84.3528 20.74C84.1708 20.5667 84.0798 20.3413 84.0798 20.064H83.8458ZM82.3898 19.622C82.8665 19.622 83.2478 19.466 83.5338 19.154C83.8198 18.8333 83.9628 18.4 83.9628 17.854V17.698C83.9628 17.152 83.8198 16.723 83.5338 16.411C83.2478 16.0903 82.8665 15.93 82.3898 15.93C81.9132 15.93 81.5318 16.0903 81.2458 16.411C80.9598 16.723 80.8168 17.152 80.8168 17.698V17.854C80.8168 18.4 80.9598 18.8333 81.2458 19.154C81.5318 19.466 81.9132 19.622 82.3898 19.622Z" fill="#495567"/>
</g>
<defs>
<clipPath id="clip0_0_1048">
<rect width="120" height="40" fill="white"/>
</clipPath>
</defs>
</svg>
