<svg width="120" height="40" viewBox="0 0 120 40" fill="none" xmlns="http://www.w3.org/2000/svg">
<g clip-path="url(#clip0_0_1033)">
<path fill-rule="evenodd" clip-rule="evenodd" d="M120 0H0V32H52L60 40L68 32H120V0Z" fill="#FCB72B"/>
<path d="M35.4044 20.142H35.6384V11.9H37.3544V21H34.0004L32.9344 12.758H32.7004V21H30.9844V11.9H34.3384L35.4044 20.142ZM40.028 18.309C40.0367 18.4997 40.08 18.6773 40.158 18.842C40.2447 18.998 40.3573 19.1367 40.496 19.258C40.6433 19.3707 40.808 19.4617 40.99 19.531C41.1807 19.5917 41.38 19.622 41.588 19.622C41.9953 19.622 42.3073 19.5527 42.524 19.414C42.7407 19.2667 42.8967 19.0933 42.992 18.894L44.396 19.674C44.318 19.8387 44.2097 20.012 44.071 20.194C43.9323 20.3673 43.7503 20.5277 43.525 20.675C43.3083 20.8223 43.0397 20.9437 42.719 21.039C42.407 21.1343 42.0387 21.182 41.614 21.182C41.1287 21.182 40.6867 21.104 40.288 20.948C39.8893 20.792 39.5427 20.5667 39.248 20.272C38.962 19.9773 38.7367 19.6177 38.572 19.193C38.416 18.7683 38.338 18.2873 38.338 17.75V17.672C38.338 17.178 38.4203 16.7273 38.585 16.32C38.7583 15.9127 38.9923 15.566 39.287 15.28C39.5817 14.994 39.924 14.773 40.314 14.617C40.7127 14.4523 41.1373 14.37 41.588 14.37C42.1427 14.37 42.6193 14.4697 43.018 14.669C43.4167 14.8597 43.746 15.1067 44.006 15.41C44.266 15.7047 44.4567 16.034 44.578 16.398C44.6993 16.7533 44.76 17.1 44.76 17.438V18.309H40.028ZM41.575 15.852C41.159 15.852 40.821 15.9603 40.561 16.177C40.301 16.385 40.132 16.6277 40.054 16.905H43.096C43.044 16.6017 42.8793 16.3503 42.602 16.151C42.3333 15.9517 41.991 15.852 41.575 15.852ZM52.2826 21H49.4486L49.0846 16.112V15.332H48.7726V16.112L48.4086 21H45.5746L45.1456 14.552H46.6536L46.9396 19.44V20.22H47.2516V19.44L47.5766 14.552H50.2806L50.6056 19.44V20.22H50.9176V19.44L51.2036 14.552H52.7116L52.2826 21ZM62.8298 17.802H62.4398L59.8268 11.9H61.6988L63.5708 16.242H63.8048L65.6768 11.9H67.5488L64.9358 17.802H64.5458V21H62.8298V17.802ZM74.4214 17.854C74.4214 18.3913 74.3304 18.868 74.1484 19.284C73.9664 19.6913 73.7194 20.038 73.4074 20.324C73.0954 20.6013 72.7358 20.8137 72.3284 20.961C71.9298 21.1083 71.5094 21.182 71.0674 21.182C70.6254 21.182 70.2008 21.1083 69.7934 20.961C69.3948 20.8137 69.0394 20.6013 68.7274 20.324C68.4154 20.038 68.1684 19.6913 67.9864 19.284C67.8044 18.868 67.7134 18.3913 67.7134 17.854V17.698C67.7134 17.1693 67.8044 16.7013 67.9864 16.294C68.1684 15.878 68.4154 15.527 68.7274 15.241C69.0394 14.955 69.3948 14.7383 69.7934 14.591C70.2008 14.4437 70.6254 14.37 71.0674 14.37C71.5094 14.37 71.9298 14.4437 72.3284 14.591C72.7358 14.7383 73.0954 14.955 73.4074 15.241C73.7194 15.527 73.9664 15.878 74.1484 16.294C74.3304 16.7013 74.4214 17.1693 74.4214 17.698V17.854ZM71.0674 19.622C71.3014 19.622 71.5224 19.583 71.7304 19.505C71.9384 19.427 72.1204 19.3143 72.2764 19.167C72.4324 19.0197 72.5538 18.842 72.6404 18.634C72.7358 18.4173 72.7834 18.1747 72.7834 17.906V17.646C72.7834 17.3773 72.7358 17.139 72.6404 16.931C72.5538 16.7143 72.4324 16.5323 72.2764 16.385C72.1204 16.2377 71.9384 16.125 71.7304 16.047C71.5224 15.969 71.3014 15.93 71.0674 15.93C70.8334 15.93 70.6124 15.969 70.4044 16.047C70.1964 16.125 70.0144 16.2377 69.8584 16.385C69.7024 16.5323 69.5768 16.7143 69.4814 16.931C69.3948 17.139 69.3514 17.3773 69.3514 17.646V17.906C69.3514 18.1747 69.3948 18.4173 69.4814 18.634C69.5768 18.842 69.7024 19.0197 69.8584 19.167C70.0144 19.3143 70.1964 19.427 70.4044 19.505C70.6124 19.583 70.8334 19.622 71.0674 19.622ZM75.171 14.552H77.901V15.488H78.135C78.2564 15.1327 78.46 14.8597 78.746 14.669C79.0407 14.4697 79.3917 14.37 79.799 14.37C80.4404 14.37 80.956 14.5737 81.346 14.981C81.736 15.3797 81.931 15.9907 81.931 16.814V17.1L80.241 17.256V17.074C80.241 16.7187 80.15 16.437 79.968 16.229C79.786 16.0123 79.513 15.904 79.149 15.904C78.785 15.904 78.499 16.0297 78.291 16.281C78.083 16.5323 77.979 16.892 77.979 17.36V19.44H79.461V21H75.015V19.44H76.341V16.112H75.171V14.552ZM85.0206 16.918H85.3326L87.0486 14.552H88.8426V14.63L86.7626 17.581V17.815L89.0506 20.922V21H87.1786L85.3326 18.478H85.0206V21H83.3826V11.9H85.0206V16.918Z" fill="#495567"/>
</g>
<defs>
<clipPath id="clip0_0_1033">
<rect width="120" height="40" fill="white"/>
</clipPath>
</defs>
</svg>
