<svg width="120" height="40" viewBox="0 0 120 40" fill="none" xmlns="http://www.w3.org/2000/svg">
<g clip-path="url(#clip0_0_1043)">
<path fill-rule="evenodd" clip-rule="evenodd" d="M120 0H0V32H52L60 40L68 32H120V0Z" fill="#FCB72B"/>
<path d="M33.3114 17.802H32.9214L30.3084 11.9H32.1804L34.0524 16.242H34.2864L36.1584 11.9H38.0304L35.4174 17.802H35.0274V21H33.3114V17.802ZM44.903 17.854C44.903 18.3913 44.812 18.868 44.63 19.284C44.448 19.6913 44.201 20.038 43.889 20.324C43.577 20.6013 43.2173 20.8137 42.81 20.961C42.4113 21.1083 41.991 21.182 41.549 21.182C41.107 21.182 40.6823 21.1083 40.275 20.961C39.8763 20.8137 39.521 20.6013 39.209 20.324C38.897 20.038 38.65 19.6913 38.468 19.284C38.286 18.868 38.195 18.3913 38.195 17.854V17.698C38.195 17.1693 38.286 16.7013 38.468 16.294C38.65 15.878 38.897 15.527 39.209 15.241C39.521 14.955 39.8763 14.7383 40.275 14.591C40.6823 14.4437 41.107 14.37 41.549 14.37C41.991 14.37 42.4113 14.4437 42.81 14.591C43.2173 14.7383 43.577 14.955 43.889 15.241C44.201 15.527 44.448 15.878 44.63 16.294C44.812 16.7013 44.903 17.1693 44.903 17.698V17.854ZM41.549 19.622C41.783 19.622 42.004 19.583 42.212 19.505C42.42 19.427 42.602 19.3143 42.758 19.167C42.914 19.0197 43.0353 18.842 43.122 18.634C43.2173 18.4173 43.265 18.1747 43.265 17.906V17.646C43.265 17.3773 43.2173 17.139 43.122 16.931C43.0353 16.7143 42.914 16.5323 42.758 16.385C42.602 16.2377 42.42 16.125 42.212 16.047C42.004 15.969 41.783 15.93 41.549 15.93C41.315 15.93 41.094 15.969 40.886 16.047C40.678 16.125 40.496 16.2377 40.34 16.385C40.184 16.5323 40.0583 16.7143 39.963 16.931C39.8763 17.139 39.833 17.3773 39.833 17.646V17.906C39.833 18.1747 39.8763 18.4173 39.963 18.634C40.0583 18.842 40.184 19.0197 40.34 19.167C40.496 19.3143 40.678 19.427 40.886 19.505C41.094 19.583 41.315 19.622 41.549 19.622ZM48.1226 16.918H48.4346L50.1506 14.552H51.9446V14.63L49.8646 17.581V17.815L52.1526 20.922V21H50.2806L48.4346 18.478H48.1226V21H46.4846V11.9H48.1226V16.918ZM59.6622 17.854C59.6622 18.3913 59.5712 18.868 59.3892 19.284C59.2072 19.6913 58.9602 20.038 58.6482 20.324C58.3362 20.6013 57.9766 20.8137 57.5692 20.961C57.1706 21.1083 56.7502 21.182 56.3082 21.182C55.8662 21.182 55.4416 21.1083 55.0342 20.961C54.6356 20.8137 54.2802 20.6013 53.9682 20.324C53.6562 20.038 53.4092 19.6913 53.2272 19.284C53.0452 18.868 52.9542 18.3913 52.9542 17.854V17.698C52.9542 17.1693 53.0452 16.7013 53.2272 16.294C53.4092 15.878 53.6562 15.527 53.9682 15.241C54.2802 14.955 54.6356 14.7383 55.0342 14.591C55.4416 14.4437 55.8662 14.37 56.3082 14.37C56.7502 14.37 57.1706 14.4437 57.5692 14.591C57.9766 14.7383 58.3362 14.955 58.6482 15.241C58.9602 15.527 59.2072 15.878 59.3892 16.294C59.5712 16.7013 59.6622 17.1693 59.6622 17.698V17.854ZM56.3082 19.622C56.5422 19.622 56.7632 19.583 56.9712 19.505C57.1792 19.427 57.3612 19.3143 57.5172 19.167C57.6732 19.0197 57.7946 18.842 57.8812 18.634C57.9766 18.4173 58.0242 18.1747 58.0242 17.906V17.646C58.0242 17.3773 57.9766 17.139 57.8812 16.931C57.7946 16.7143 57.6732 16.5323 57.5172 16.385C57.3612 16.2377 57.1792 16.125 56.9712 16.047C56.7632 15.969 56.5422 15.93 56.3082 15.93C56.0742 15.93 55.8532 15.969 55.6452 16.047C55.4372 16.125 55.2552 16.2377 55.0992 16.385C54.9432 16.5323 54.8176 16.7143 54.7222 16.931C54.6356 17.139 54.5922 17.3773 54.5922 17.646V17.906C54.5922 18.1747 54.6356 18.4173 54.7222 18.634C54.8176 18.842 54.9432 19.0197 55.0992 19.167C55.2552 19.3143 55.4372 19.427 55.6452 19.505C55.8532 19.583 56.0742 19.622 56.3082 19.622ZM62.3878 21H60.7498V11.9H62.3878V15.592H62.6218C62.7865 15.202 63.0292 14.903 63.3498 14.695C63.6705 14.4783 64.0648 14.37 64.5328 14.37C64.8535 14.37 65.1482 14.422 65.4168 14.526C65.6855 14.63 65.9195 14.786 66.1188 14.994C66.3182 15.202 66.4742 15.4707 66.5868 15.8C66.6995 16.1207 66.7558 16.502 66.7558 16.944V21H65.1178V17.334C65.1178 16.8747 65.0052 16.515 64.7798 16.255C64.5632 15.9863 64.2468 15.852 63.8308 15.852C63.3455 15.852 62.9815 16.0167 62.7388 16.346C62.5048 16.6667 62.3878 17.1 62.3878 17.646V21ZM72.2764 20.064C72.1031 20.4713 71.8604 20.7617 71.5484 20.935C71.2364 21.0997 70.8724 21.182 70.4564 21.182C70.0664 21.182 69.6981 21.1083 69.3514 20.961C69.0134 20.8137 68.7144 20.597 68.4544 20.311C68.1944 20.025 67.9864 19.6783 67.8304 19.271C67.6831 18.8637 67.6094 18.4 67.6094 17.88V17.672C67.6094 17.1607 67.6831 16.7013 67.8304 16.294C67.9778 15.8867 68.1771 15.54 68.4284 15.254C68.6798 14.968 68.9701 14.7513 69.2994 14.604C69.6374 14.448 69.9971 14.37 70.3784 14.37C70.8378 14.37 71.2061 14.448 71.4834 14.604C71.7694 14.76 71.9948 15.0027 72.1594 15.332H72.3934V14.552H74.0314V19.05C74.0314 19.31 74.1484 19.44 74.3824 19.44H74.6294V21H73.5114C73.2168 21 72.9741 20.9133 72.7834 20.74C72.6014 20.5667 72.5104 20.3413 72.5104 20.064H72.2764ZM70.8204 19.622C71.2971 19.622 71.6784 19.466 71.9644 19.154C72.2504 18.8333 72.3934 18.4 72.3934 17.854V17.698C72.3934 17.152 72.2504 16.723 71.9644 16.411C71.6784 16.0903 71.2971 15.93 70.8204 15.93C70.3438 15.93 69.9624 16.0903 69.6764 16.411C69.3904 16.723 69.2474 17.152 69.2474 17.698V17.854C69.2474 18.4 69.3904 18.8333 69.6764 19.154C69.9624 19.466 70.3438 19.622 70.8204 19.622ZM81.957 21H80.319V16.476C80.319 16.294 80.2714 16.1597 80.176 16.073C80.0894 15.9777 79.9724 15.93 79.825 15.93C79.6517 15.93 79.513 15.982 79.409 16.086C79.3137 16.19 79.266 16.346 79.266 16.554V21H77.628V16.476C77.628 16.294 77.576 16.1597 77.472 16.073C77.3767 15.9777 77.2597 15.93 77.121 15.93C76.965 15.93 76.835 15.982 76.731 16.086C76.627 16.19 76.575 16.346 76.575 16.554V21H74.937V14.552H76.575V15.176H76.809C76.861 14.942 76.978 14.7513 77.16 14.604C77.3507 14.448 77.5977 14.37 77.901 14.37C78.187 14.37 78.4297 14.448 78.629 14.604C78.8284 14.7513 78.9627 14.942 79.032 15.176H79.266C79.3354 14.942 79.4784 14.7513 79.695 14.604C79.9204 14.448 80.1977 14.37 80.527 14.37C80.9604 14.37 81.307 14.5173 81.567 14.812C81.827 15.098 81.957 15.4967 81.957 16.008V21ZM87.0356 20.064C86.8623 20.4713 86.6196 20.7617 86.3076 20.935C85.9956 21.0997 85.6316 21.182 85.2156 21.182C84.8256 21.182 84.4573 21.1083 84.1106 20.961C83.7726 20.8137 83.4736 20.597 83.2136 20.311C82.9536 20.025 82.7456 19.6783 82.5896 19.271C82.4423 18.8637 82.3686 18.4 82.3686 17.88V17.672C82.3686 17.1607 82.4423 16.7013 82.5896 16.294C82.737 15.8867 82.9363 15.54 83.1876 15.254C83.439 14.968 83.7293 14.7513 84.0586 14.604C84.3966 14.448 84.7563 14.37 85.1376 14.37C85.597 14.37 85.9653 14.448 86.2426 14.604C86.5286 14.76 86.754 15.0027 86.9186 15.332H87.1526V14.552H88.7906V19.05C88.7906 19.31 88.9076 19.44 89.1416 19.44H89.3886V21H88.2706C87.976 21 87.7333 20.9133 87.5426 20.74C87.3606 20.5667 87.2696 20.3413 87.2696 20.064H87.0356ZM85.5796 19.622C86.0563 19.622 86.4376 19.466 86.7236 19.154C87.0096 18.8333 87.1526 18.4 87.1526 17.854V17.698C87.1526 17.152 87.0096 16.723 86.7236 16.411C86.4376 16.0903 86.0563 15.93 85.5796 15.93C85.103 15.93 84.7216 16.0903 84.4356 16.411C84.1496 16.723 84.0066 17.152 84.0066 17.698V17.854C84.0066 18.4 84.1496 18.8333 84.4356 19.154C84.7216 19.466 85.103 19.622 85.5796 19.622Z" fill="#495567"/>
</g>
<defs>
<clipPath id="clip0_0_1043">
<rect width="120" height="40" fill="white"/>
</clipPath>
</defs>
</svg>
